<!-- License: CC Attribution. Made by AkashRajDahal: https://dribbble.com/AkashRajDahal -->
<svg width="24px" height="24px" viewBox="0 0 24 24" id="Layer_1" data-name="Layer 1" xmlns="http://www.w3.org/2000/svg" xmlns:xlink="http://www.w3.org/1999/xlink"><defs><style>.cls-1{fill:none;}.cls-2{clip-path:url(#clip-path);}</style><clipPath id="clip-path"><rect class="cls-1" y="0.01" width="24" height="24"/></clipPath></defs><title>envelope</title><g class="cls-2"><path d="M18,19H6a4,4,0,0,1-4-4V7A4,4,0,0,1,6,3H18a4,4,0,0,1,4,4v8A4,4,0,0,1,18,19ZM6,5A2,2,0,0,0,4,7v8a2,2,0,0,0,2,2H18a2,2,0,0,0,2-2V7a2,2,0,0,0-2-2Z"/><path d="M12,14.08a.86.86,0,0,1-.32-.05L2.68,11a1,1,0,1,1,.64-1.9L12,12l8.68-2.81A1,1,0,0,1,22,9.86a1,1,0,0,1-.64,1.26l-9,2.91A.84.84,0,0,1,12,14.08Z"/><path d="M3.92,18.16a1,1,0,0,1-.71-.29,1,1,0,0,1,0-1.42L8.3,11.37a1,1,0,0,1,1.41,1.41L4.63,17.87A1,1,0,0,1,3.92,18.16Z"/><path d="M20.08,18.16a1,1,0,0,1-.71-.29L14.31,12.8a1,1,0,0,1,1.41-1.41l5.07,5.06a1,1,0,0,1,0,1.42A1,1,0,0,1,20.08,18.16Z"/></g></svg>